<?xml version="1.0" standalone="no"?>
<!DOCTYPE svg PUBLIC "-//W3C//DTD SVG 20010904//EN"
 "http://www.w3.org/TR/2001/REC-SVG-20010904/DTD/svg10.dtd">
<svg version="1.0" xmlns="http://www.w3.org/2000/svg"
 width="700.000000pt" height="700.000000pt" viewBox="0 0 700.000000 700.000000"
 preserveAspectRatio="xMidYMid meet">
<metadata>
Created by potrace 1.14, written by Peter Selinger 2001-2017
</metadata>
<g transform="translate(0.000000,700.000000) scale(0.100000,-0.100000)"
fill="#000000" stroke="none">
<path d="M3 5113 c2 -1038 6 -1899 9 -1913 3 -14 9 -56 12 -93 4 -37 9 -76 11
-86 2 -10 6 -36 9 -57 64 -410 230 -872 437 -1215 32 -53 156 -244 171 -264
202 -261 416 -491 598 -642 462 -384 1017 -644 1605 -752 61 -11 137 -23 170
-26 33 -4 67 -8 75 -10 37 -10 342 -24 370 -17 13 3 15 205 14 1747 0 1582 1
1743 15 1736 20 -9 3442 -7 3457 2 7 4 10 38 8 89 -3 104 -14 268 -19 300 -2
12 -9 57 -14 98 -6 41 -12 84 -15 95 -3 18 -11 61 -23 125 -25 141 -98 383
-170 565 -67 169 -206 453 -248 505 -7 8 -15 22 -19 30 -32 70 -206 310 -324
449 -105 123 -338 349 -467 452 -456 366 -1020 623 -1565 714 -19 3 -60 10
-90 15 -30 5 -82 12 -115 15 -33 4 -76 9 -95 12 -19 4 -882 8 -1918 10 l-1883
4 4 -1888z"/>
</g>
</svg>
